<?xml version="1.0" encoding="UTF-8"?>
<mxfile host="app.diagrams.net">
  <diagram id="workflow" name="NewSystem.AI Workflow">
    <mxGraphModel dx="2000" dy="1200" grid="1" gridSize="10" guides="1" tooltips="1" connect="1" arrows="1" fold="1" page="1" pageScale="1" pageWidth="2000" pageHeight="1400">
      <root>
        <mxCell id="0"/>
        <mxCell id="1" parent="0"/>
    <mxCell id="title" value="Email-to-WMS Order Processing Workflow (30 Steps)" 
           style="text;html=1;align=center;verticalAlign=middle;fontFamily=Arial;fontSize=16;fontStyle=1;fillColor=none;strokeColor=none;" 
           vertex="1" parent="1">
      <mxGeometry x="50" y="20" width="600" height="40" as="geometry"/>
    </mxCell>
    <mxCell id="step1" value="Open Outlook inbox&amp;#xa;📱 Microsoft Outlook&amp;#xa;⏱️ 5s&amp;#xa;💡 Check for new customer orders" 
           style="rounded=1;whiteSpace=wrap;html=1;fontFamily=Arial;fontSize=11;spacing=4;fillColor=#fff2cc;strokeColor=#d6b656;strokeWidth=2;shadow=1;glass=0;" 
           vertex="1" parent="1">
      <mxGeometry x="50" y="100" width="228" height="140" as="geometry"/>
    </mxCell>
    <mxCell id="step2" value="Sort emails by date&amp;#xa;📱 Microsoft Outlook&amp;#xa;⏱️ 2s&amp;#xa;💡 Prioritize recent orders" 
           style="rounded=1;whiteSpace=wrap;html=1;fontFamily=Arial;fontSize=11;spacing=4;fillColor=#fff2cc;strokeColor=#d6b656;strokeWidth=2;shadow=1;glass=0;" 
           vertex="1" parent="1">
      <mxGeometry x="528" y="100" width="228" height="140" as="geometry"/>
    </mxCell>
    <mxCell id="step3" value="Filter for customer orders&amp;#xa;📱 Microsoft Outlook&amp;#xa;⏱️ 3s&amp;#xa;💡 Find relevant emails" 
           style="rounded=1;whiteSpace=wrap;html=1;fontFamily=Arial;fontSize=11;spacing=4;fillColor=#fff2cc;strokeColor=#d6b656;strokeWidth=2;shadow=1;glass=0;" 
           vertex="1" parent="1">
      <mxGeometry x="1006" y="100" width="234" height="140" as="geometry"/>
    </mxCell>
    <mxCell id="step4" value="Open first order email&amp;#xa;📱 Microsoft Outlook&amp;#xa;⏱️ 2s&amp;#xa;💡 Review order details" 
           style="rounded=1;whiteSpace=wrap;html=1;fontFamily=Arial;fontSize=11;spacing=4;fillColor=#fff2cc;strokeColor=#d6b656;strokeWidth=2;shadow=1;glass=0;" 
           vertex="1" parent="1">
      <mxGeometry x="1490" y="100" width="231" height="140" as="geometry"/>
    </mxCell>
    <mxCell id="step5" value="Copy customer name&amp;#xa;📱 Microsoft Outlook&amp;#xa;⏱️ 2s&amp;#xa;💡 Extract customer info" 
           style="rounded=1;whiteSpace=wrap;html=1;fontFamily=Arial;fontSize=11;spacing=4;fillColor=#fff2cc;strokeColor=#d6b656;strokeWidth=2;shadow=1;glass=0;" 
           vertex="1" parent="1">
      <mxGeometry x="1971" y="100" width="228" height="140" as="geometry"/>
    </mxCell>
    <mxCell id="step6" value="Switch to Excel&amp;#xa;📱 Microsoft Excel&amp;#xa;⏱️ 2s&amp;#xa;💡 Access customer database" 
           style="rounded=1;whiteSpace=wrap;html=1;fontFamily=Arial;fontSize=11;spacing=4;fillColor=#d5e8d4;strokeColor=#82b366;strokeWidth=2;shadow=1;glass=0;" 
           vertex="1" parent="1">
      <mxGeometry x="50" y="420" width="224" height="140" as="geometry"/>
    </mxCell>
    <mxCell id="step7" value="Open customer list&amp;#xa;📱 Microsoft Excel&amp;#xa;⏱️ 3s&amp;#xa;💡 Verify customer exists" 
           style="rounded=1;whiteSpace=wrap;html=1;fontFamily=Arial;fontSize=11;spacing=4;fillColor=#d5e8d4;strokeColor=#82b366;strokeWidth=2;shadow=1;glass=0;" 
           vertex="1" parent="1">
      <mxGeometry x="524" y="420" width="226" height="140" as="geometry"/>
    </mxCell>
    <mxCell id="step8" value="Search for customer&amp;#xa;📱 Microsoft Excel&amp;#xa;⏱️ 4s&amp;#xa;💡 Find customer record" 
           style="rounded=1;whiteSpace=wrap;html=1;fontFamily=Arial;fontSize=11;spacing=4;fillColor=#d5e8d4;strokeColor=#82b366;strokeWidth=2;shadow=1;glass=0;" 
           vertex="1" parent="1">
      <mxGeometry x="1000" y="420" width="227" height="140" as="geometry"/>
    </mxCell>
    <mxCell id="step9" value="Verify customer details&amp;#xa;📱 Microsoft Excel&amp;#xa;⏱️ 3s&amp;#xa;💡 Confirm address matches" 
           style="rounded=1;whiteSpace=wrap;html=1;fontFamily=Arial;fontSize=11;spacing=4;fillColor=#d5e8d4;strokeColor=#82b366;strokeWidth=2;shadow=1;glass=0;" 
           vertex="1" parent="1">
      <mxGeometry x="1477" y="420" width="230" height="140" as="geometry"/>
    </mxCell>
    <mxCell id="step10" value="Copy customer ID&amp;#xa;📱 Microsoft Excel&amp;#xa;⏱️ 2s&amp;#xa;💡 Get unique identifier" 
           style="rounded=1;whiteSpace=wrap;html=1;fontFamily=Arial;fontSize=11;spacing=4;fillColor=#d5e8d4;strokeColor=#82b366;strokeWidth=2;shadow=1;glass=0;" 
           vertex="1" parent="1">
      <mxGeometry x="1957" y="420" width="224" height="140" as="geometry"/>
    </mxCell>
    <mxCell id="step11" value="Switch back to Outlook&amp;#xa;📱 Microsoft Outlook&amp;#xa;⏱️ 1s&amp;#xa;💡 Continue order processing" 
           style="rounded=1;whiteSpace=wrap;html=1;fontFamily=Arial;fontSize=11;spacing=4;fillColor=#fff2cc;strokeColor=#d6b656;strokeWidth=2;shadow=1;glass=0;" 
           vertex="1" parent="1">
      <mxGeometry x="50" y="740" width="231" height="140" as="geometry"/>
    </mxCell>
    <mxCell id="step12" value="Copy order items&amp;#xa;📱 Microsoft Outlook&amp;#xa;⏱️ 5s&amp;#xa;💡 Extract product list" 
           style="rounded=1;whiteSpace=wrap;html=1;fontFamily=Arial;fontSize=11;spacing=4;fillColor=#fff2cc;strokeColor=#d6b656;strokeWidth=2;shadow=1;glass=0;" 
           vertex="1" parent="1">
      <mxGeometry x="531" y="740" width="226" height="140" as="geometry"/>
    </mxCell>
    <mxCell id="step13" value="Copy quantities&amp;#xa;📱 Microsoft Outlook&amp;#xa;⏱️ 3s&amp;#xa;💡 Get order amounts" 
           style="rounded=1;whiteSpace=wrap;html=1;fontFamily=Arial;fontSize=11;spacing=4;fillColor=#fff2cc;strokeColor=#d6b656;strokeWidth=2;shadow=1;glass=0;" 
           vertex="1" parent="1">
      <mxGeometry x="1007" y="740" width="225" height="140" as="geometry"/>
    </mxCell>
    <mxCell id="step14" value="Copy delivery address&amp;#xa;📱 Microsoft Outlook&amp;#xa;⏱️ 3s&amp;#xa;💡 Get shipping info" 
           style="rounded=1;whiteSpace=wrap;html=1;fontFamily=Arial;fontSize=11;spacing=4;fillColor=#fff2cc;strokeColor=#d6b656;strokeWidth=2;shadow=1;glass=0;" 
           vertex="1" parent="1">
      <mxGeometry x="1482" y="740" width="230" height="140" as="geometry"/>
    </mxCell>
    <mxCell id="step15" value="Copy special instructions&amp;#xa;📱 Microsoft Outlook&amp;#xa;⏱️ 2s&amp;#xa;💡 Note delivery requirements" 
           style="rounded=1;whiteSpace=wrap;html=1;fontFamily=Arial;fontSize=11;spacing=4;fillColor=#fff2cc;strokeColor=#d6b656;strokeWidth=2;shadow=1;glass=0;" 
           vertex="1" parent="1">
      <mxGeometry x="1962" y="740" width="233" height="140" as="geometry"/>
    </mxCell>
    <mxCell id="step16" value="Open Chrome browser&amp;#xa;📱 Chrome Browser&amp;#xa;⏱️ 3s&amp;#xa;💡 Access WMS system" 
           style="rounded=1;whiteSpace=wrap;html=1;fontFamily=Arial;fontSize=11;spacing=4;fillColor=#dae8fc;strokeColor=#6c8ebf;strokeWidth=2;shadow=1;glass=0;" 
           vertex="1" parent="1">
      <mxGeometry x="50" y="1060" width="226" height="140" as="geometry"/>
    </mxCell>
    <mxCell id="step17" value="Navigate to WMS portal&amp;#xa;📱 Chrome Browser (WMS)&amp;#xa;⏱️ 4s&amp;#xa;💡 Load warehouse system" 
           style="rounded=1;whiteSpace=wrap;html=1;fontFamily=Arial;fontSize=11;spacing=4;fillColor=#dae8fc;strokeColor=#6c8ebf;strokeWidth=2;shadow=1;glass=0;" 
           vertex="1" parent="1">
      <mxGeometry x="526" y="1060" width="233" height="140" as="geometry"/>
    </mxCell>
    <mxCell id="step18" value="Login to WMS&amp;#xa;📱 Chrome Browser (WMS)&amp;#xa;⏱️ 3s&amp;#xa;💡 Authenticate user" 
           style="rounded=1;whiteSpace=wrap;html=1;fontFamily=Arial;fontSize=11;spacing=4;fillColor=#dae8fc;strokeColor=#6c8ebf;strokeWidth=2;shadow=1;glass=0;" 
           vertex="1" parent="1">
      <mxGeometry x="1009" y="1060" width="225" height="140" as="geometry"/>
    </mxCell>
    <mxCell id="step19" value="Navigate to new order&amp;#xa;📱 Chrome Browser (WMS)&amp;#xa;⏱️ 2s&amp;#xa;💡 Access order entry form" 
           style="rounded=1;whiteSpace=wrap;html=1;fontFamily=Arial;fontSize=11;spacing=4;fillColor=#dae8fc;strokeColor=#6c8ebf;strokeWidth=2;shadow=1;glass=0;" 
           vertex="1" parent="1">
      <mxGeometry x="1484" y="1060" width="232" height="140" as="geometry"/>
    </mxCell>
    <mxCell id="step20" value="Paste customer ID&amp;#xa;📱 Chrome Browser (WMS)&amp;#xa;⏱️ 1s&amp;#xa;💡 Link to customer record" 
           style="rounded=1;whiteSpace=wrap;html=1;fontFamily=Arial;fontSize=11;spacing=4;fillColor=#dae8fc;strokeColor=#6c8ebf;strokeWidth=2;shadow=1;glass=0;" 
           vertex="1" parent="1">
      <mxGeometry x="1966" y="1060" width="229" height="140" as="geometry"/>
    </mxCell>
    <mxCell id="step21" value="Enter order items&amp;#xa;📱 Chrome Browser (WMS)&amp;#xa;⏱️ 8s&amp;#xa;💡 Input product codes" 
           style="rounded=1;whiteSpace=wrap;html=1;fontFamily=Arial;fontSize=11;spacing=4;fillColor=#dae8fc;strokeColor=#6c8ebf;strokeWidth=2;shadow=1;glass=0;" 
           vertex="1" parent="1">
      <mxGeometry x="50" y="1380" width="229" height="140" as="geometry"/>
    </mxCell>
    <mxCell id="step22" value="Enter quantities&amp;#xa;📱 Chrome Browser (WMS)&amp;#xa;⏱️ 4s&amp;#xa;💡 Specify amounts" 
           style="rounded=1;whiteSpace=wrap;html=1;fontFamily=Arial;fontSize=11;spacing=4;fillColor=#dae8fc;strokeColor=#6c8ebf;strokeWidth=2;shadow=1;glass=0;" 
           vertex="1" parent="1">
      <mxGeometry x="529" y="1380" width="228" height="140" as="geometry"/>
    </mxCell>
    <mxCell id="step23" value="Enter delivery address&amp;#xa;📱 Chrome Browser (WMS)&amp;#xa;⏱️ 5s&amp;#xa;💡 Set shipping destination" 
           style="rounded=1;whiteSpace=wrap;html=1;fontFamily=Arial;fontSize=11;spacing=4;fillColor=#dae8fc;strokeColor=#6c8ebf;strokeWidth=2;shadow=1;glass=0;" 
           vertex="1" parent="1">
      <mxGeometry x="1007" y="1380" width="233" height="140" as="geometry"/>
    </mxCell>
    <mxCell id="step24" value="Add special instructions&amp;#xa;📱 Chrome Browser (WMS)&amp;#xa;⏱️ 3s&amp;#xa;💡 Note delivery requirements" 
           style="rounded=1;whiteSpace=wrap;html=1;fontFamily=Arial;fontSize=11;spacing=4;fillColor=#dae8fc;strokeColor=#6c8ebf;strokeWidth=2;shadow=1;glass=0;" 
           vertex="1" parent="1">
      <mxGeometry x="1490" y="1380" width="235" height="140" as="geometry"/>
    </mxCell>
    <mxCell id="step25" value="Select shipping method&amp;#xa;📱 Chrome Browser (WMS)&amp;#xa;⏱️ 2s&amp;#xa;💡 Choose delivery speed" 
           style="rounded=1;whiteSpace=wrap;html=1;fontFamily=Arial;fontSize=11;spacing=4;fillColor=#dae8fc;strokeColor=#6c8ebf;strokeWidth=2;shadow=1;glass=0;" 
           vertex="1" parent="1">
      <mxGeometry x="1975" y="1380" width="233" height="140" as="geometry"/>
    </mxCell>
    <mxCell id="step26" value="Review order summary&amp;#xa;📱 Chrome Browser (WMS)&amp;#xa;⏱️ 4s&amp;#xa;💡 Verify all details correct" 
           style="rounded=1;whiteSpace=wrap;html=1;fontFamily=Arial;fontSize=11;spacing=4;fillColor=#dae8fc;strokeColor=#6c8ebf;strokeWidth=2;shadow=1;glass=0;" 
           vertex="1" parent="1">
      <mxGeometry x="50" y="1700" width="232" height="140" as="geometry"/>
    </mxCell>
    <mxCell id="step27" value="Calculate shipping cost&amp;#xa;📱 Chrome Browser (WMS)&amp;#xa;⏱️ 2s&amp;#xa;💡 Determine delivery charges" 
           style="rounded=1;whiteSpace=wrap;html=1;fontFamily=Arial;fontSize=11;spacing=4;fillColor=#dae8fc;strokeColor=#6c8ebf;strokeWidth=2;shadow=1;glass=0;" 
           vertex="1" parent="1">
      <mxGeometry x="532" y="1700" width="234" height="140" as="geometry"/>
    </mxCell>
    <mxCell id="step28" value="Submit order to warehouse&amp;#xa;📱 Chrome Browser (WMS)&amp;#xa;⏱️ 2s&amp;#xa;💡 Send to fulfillment" 
           style="rounded=1;whiteSpace=wrap;html=1;fontFamily=Arial;fontSize=11;spacing=4;fillColor=#dae8fc;strokeColor=#6c8ebf;strokeWidth=2;shadow=1;glass=0;" 
           vertex="1" parent="1">
      <mxGeometry x="1016" y="1700" width="236" height="140" as="geometry"/>
    </mxCell>
    <mxCell id="step29" value="Copy order confirmation&amp;#xa;📱 Chrome Browser (WMS)&amp;#xa;⏱️ 2s&amp;#xa;💡 Get tracking number" 
           style="rounded=1;whiteSpace=wrap;html=1;fontFamily=Arial;fontSize=11;spacing=4;fillColor=#dae8fc;strokeColor=#6c8ebf;strokeWidth=2;shadow=1;glass=0;" 
           vertex="1" parent="1">
      <mxGeometry x="1502" y="1700" width="234" height="140" as="geometry"/>
    </mxCell>
    <mxCell id="step30" value="Return to Outlook&amp;#xa;📱 Microsoft Outlook&amp;#xa;⏱️ 2s&amp;#xa;💡 Send confirmation email" 
           style="rounded=1;whiteSpace=wrap;html=1;fontFamily=Arial;fontSize=11;spacing=4;fillColor=#fff2cc;strokeColor=#d6b656;strokeWidth=2;shadow=1;glass=0;" 
           vertex="1" parent="1">
      <mxGeometry x="1986" y="1700" width="227" height="140" as="geometry"/>
    </mxCell>
    <mxCell id="edge1" style="edgeStyle=orthogonalEdgeStyle;rounded=1;orthogonalLoop=1;jettySize=auto;html=1;strokeColor=#82b366;strokeWidth=2;dashed=1;dashPattern=5 5;" 
           source="step1" target="step2" edge="1" parent="1">
      <mxGeometry relative="1" as="geometry"/>
    </mxCell>
    <mxCell id="edge2" style="edgeStyle=orthogonalEdgeStyle;rounded=1;orthogonalLoop=1;jettySize=auto;html=1;strokeColor=#82b366;strokeWidth=2;dashed=1;dashPattern=5 5;" 
           source="step2" target="step3" edge="1" parent="1">
      <mxGeometry relative="1" as="geometry"/>
    </mxCell>
    <mxCell id="edge3" style="edgeStyle=orthogonalEdgeStyle;rounded=1;orthogonalLoop=1;jettySize=auto;html=1;strokeColor=#82b366;strokeWidth=2;dashed=1;dashPattern=5 5;" 
           source="step3" target="step4" edge="1" parent="1">
      <mxGeometry relative="1" as="geometry"/>
    </mxCell>
    <mxCell id="edge4" style="edgeStyle=orthogonalEdgeStyle;rounded=1;orthogonalLoop=1;jettySize=auto;html=1;strokeColor=#82b366;strokeWidth=2;dashed=1;dashPattern=5 5;" 
           source="step4" target="step5" edge="1" parent="1">
      <mxGeometry relative="1" as="geometry"/>
    </mxCell>
    <mxCell id="edge5" style="edgeStyle=orthogonalEdgeStyle;rounded=1;orthogonalLoop=1;jettySize=auto;html=1;strokeColor=#666666;strokeWidth=2;endArrow=classic;endFill=1;" 
           source="step5" target="step6" edge="1" parent="1">
      <mxGeometry relative="1" as="geometry"/>
    </mxCell>
    <mxCell id="edge6" style="edgeStyle=orthogonalEdgeStyle;rounded=1;orthogonalLoop=1;jettySize=auto;html=1;strokeColor=#82b366;strokeWidth=2;dashed=1;dashPattern=5 5;" 
           source="step6" target="step7" edge="1" parent="1">
      <mxGeometry relative="1" as="geometry"/>
    </mxCell>
    <mxCell id="edge7" style="edgeStyle=orthogonalEdgeStyle;rounded=1;orthogonalLoop=1;jettySize=auto;html=1;strokeColor=#82b366;strokeWidth=2;dashed=1;dashPattern=5 5;" 
           source="step7" target="step8" edge="1" parent="1">
      <mxGeometry relative="1" as="geometry"/>
    </mxCell>
    <mxCell id="edge8" style="edgeStyle=orthogonalEdgeStyle;rounded=1;orthogonalLoop=1;jettySize=auto;html=1;strokeColor=#82b366;strokeWidth=2;dashed=1;dashPattern=5 5;" 
           source="step8" target="step9" edge="1" parent="1">
      <mxGeometry relative="1" as="geometry"/>
    </mxCell>
    <mxCell id="edge9" style="edgeStyle=orthogonalEdgeStyle;rounded=1;orthogonalLoop=1;jettySize=auto;html=1;strokeColor=#82b366;strokeWidth=2;dashed=1;dashPattern=5 5;" 
           source="step9" target="step10" edge="1" parent="1">
      <mxGeometry relative="1" as="geometry"/>
    </mxCell>
    <mxCell id="edge10" style="edgeStyle=orthogonalEdgeStyle;rounded=1;orthogonalLoop=1;jettySize=auto;html=1;strokeColor=#666666;strokeWidth=2;endArrow=classic;endFill=1;" 
           source="step10" target="step11" edge="1" parent="1">
      <mxGeometry relative="1" as="geometry"/>
    </mxCell>
    <mxCell id="edge11" style="edgeStyle=orthogonalEdgeStyle;rounded=1;orthogonalLoop=1;jettySize=auto;html=1;strokeColor=#82b366;strokeWidth=2;dashed=1;dashPattern=5 5;" 
           source="step11" target="step12" edge="1" parent="1">
      <mxGeometry relative="1" as="geometry"/>
    </mxCell>
    <mxCell id="edge12" style="edgeStyle=orthogonalEdgeStyle;rounded=1;orthogonalLoop=1;jettySize=auto;html=1;strokeColor=#82b366;strokeWidth=2;dashed=1;dashPattern=5 5;" 
           source="step12" target="step13" edge="1" parent="1">
      <mxGeometry relative="1" as="geometry"/>
    </mxCell>
    <mxCell id="edge13" style="edgeStyle=orthogonalEdgeStyle;rounded=1;orthogonalLoop=1;jettySize=auto;html=1;strokeColor=#82b366;strokeWidth=2;dashed=1;dashPattern=5 5;" 
           source="step13" target="step14" edge="1" parent="1">
      <mxGeometry relative="1" as="geometry"/>
    </mxCell>
    <mxCell id="edge14" style="edgeStyle=orthogonalEdgeStyle;rounded=1;orthogonalLoop=1;jettySize=auto;html=1;strokeColor=#82b366;strokeWidth=2;dashed=1;dashPattern=5 5;" 
           source="step14" target="step15" edge="1" parent="1">
      <mxGeometry relative="1" as="geometry"/>
    </mxCell>
    <mxCell id="edge15" style="edgeStyle=orthogonalEdgeStyle;rounded=1;orthogonalLoop=1;jettySize=auto;html=1;strokeColor=#666666;strokeWidth=2;endArrow=classic;endFill=1;" 
           source="step15" target="step16" edge="1" parent="1">
      <mxGeometry relative="1" as="geometry"/>
    </mxCell>
    <mxCell id="edge16" style="edgeStyle=orthogonalEdgeStyle;rounded=1;orthogonalLoop=1;jettySize=auto;html=1;strokeColor=#666666;strokeWidth=2;endArrow=classic;endFill=1;" 
           source="step16" target="step17" edge="1" parent="1">
      <mxGeometry relative="1" as="geometry"/>
    </mxCell>
    <mxCell id="edge17" style="edgeStyle=orthogonalEdgeStyle;rounded=1;orthogonalLoop=1;jettySize=auto;html=1;strokeColor=#82b366;strokeWidth=2;dashed=1;dashPattern=5 5;" 
           source="step17" target="step18" edge="1" parent="1">
      <mxGeometry relative="1" as="geometry"/>
    </mxCell>
    <mxCell id="edge18" style="edgeStyle=orthogonalEdgeStyle;rounded=1;orthogonalLoop=1;jettySize=auto;html=1;strokeColor=#82b366;strokeWidth=2;dashed=1;dashPattern=5 5;" 
           source="step18" target="step19" edge="1" parent="1">
      <mxGeometry relative="1" as="geometry"/>
    </mxCell>
    <mxCell id="edge19" style="edgeStyle=orthogonalEdgeStyle;rounded=1;orthogonalLoop=1;jettySize=auto;html=1;strokeColor=#82b366;strokeWidth=2;dashed=1;dashPattern=5 5;" 
           source="step19" target="step20" edge="1" parent="1">
      <mxGeometry relative="1" as="geometry"/>
    </mxCell>
    <mxCell id="edge20" style="edgeStyle=orthogonalEdgeStyle;rounded=1;orthogonalLoop=1;jettySize=auto;html=1;strokeColor=#82b366;strokeWidth=2;dashed=1;dashPattern=5 5;" 
           source="step20" target="step21" edge="1" parent="1">
      <mxGeometry relative="1" as="geometry"/>
    </mxCell>
    <mxCell id="edge21" style="edgeStyle=orthogonalEdgeStyle;rounded=1;orthogonalLoop=1;jettySize=auto;html=1;strokeColor=#82b366;strokeWidth=2;dashed=1;dashPattern=5 5;" 
           source="step21" target="step22" edge="1" parent="1">
      <mxGeometry relative="1" as="geometry"/>
    </mxCell>
    <mxCell id="edge22" style="edgeStyle=orthogonalEdgeStyle;rounded=1;orthogonalLoop=1;jettySize=auto;html=1;strokeColor=#82b366;strokeWidth=2;dashed=1;dashPattern=5 5;" 
           source="step22" target="step23" edge="1" parent="1">
      <mxGeometry relative="1" as="geometry"/>
    </mxCell>
    <mxCell id="edge23" style="edgeStyle=orthogonalEdgeStyle;rounded=1;orthogonalLoop=1;jettySize=auto;html=1;strokeColor=#82b366;strokeWidth=2;dashed=1;dashPattern=5 5;" 
           source="step23" target="step24" edge="1" parent="1">
      <mxGeometry relative="1" as="geometry"/>
    </mxCell>
    <mxCell id="edge24" style="edgeStyle=orthogonalEdgeStyle;rounded=1;orthogonalLoop=1;jettySize=auto;html=1;strokeColor=#82b366;strokeWidth=2;dashed=1;dashPattern=5 5;" 
           source="step24" target="step25" edge="1" parent="1">
      <mxGeometry relative="1" as="geometry"/>
    </mxCell>
    <mxCell id="edge25" style="edgeStyle=orthogonalEdgeStyle;rounded=1;orthogonalLoop=1;jettySize=auto;html=1;strokeColor=#82b366;strokeWidth=2;dashed=1;dashPattern=5 5;" 
           source="step25" target="step26" edge="1" parent="1">
      <mxGeometry relative="1" as="geometry"/>
    </mxCell>
    <mxCell id="edge26" style="edgeStyle=orthogonalEdgeStyle;rounded=1;orthogonalLoop=1;jettySize=auto;html=1;strokeColor=#82b366;strokeWidth=2;dashed=1;dashPattern=5 5;" 
           source="step26" target="step27" edge="1" parent="1">
      <mxGeometry relative="1" as="geometry"/>
    </mxCell>
    <mxCell id="edge27" style="edgeStyle=orthogonalEdgeStyle;rounded=1;orthogonalLoop=1;jettySize=auto;html=1;strokeColor=#82b366;strokeWidth=2;dashed=1;dashPattern=5 5;" 
           source="step27" target="step28" edge="1" parent="1">
      <mxGeometry relative="1" as="geometry"/>
    </mxCell>
    <mxCell id="edge28" style="edgeStyle=orthogonalEdgeStyle;rounded=1;orthogonalLoop=1;jettySize=auto;html=1;strokeColor=#82b366;strokeWidth=2;dashed=1;dashPattern=5 5;" 
           source="step28" target="step29" edge="1" parent="1">
      <mxGeometry relative="1" as="geometry"/>
    </mxCell>
    <mxCell id="edge29" style="edgeStyle=orthogonalEdgeStyle;rounded=1;orthogonalLoop=1;jettySize=auto;html=1;strokeColor=#666666;strokeWidth=2;endArrow=classic;endFill=1;" 
           source="step29" target="step30" edge="1" parent="1">
      <mxGeometry relative="1" as="geometry"/>
    </mxCell>
      </root>
    </mxGraphModel>
  </diagram>
</mxfile>